<svg width="389" height="184" viewBox="0 0 389 184" fill="none" xmlns="http://www.w3.org/2000/svg">
<path d="M386.783 139.372L292.216 182.219C290.569 182.876 288.747 183.219 286.899 183.219C285.051 183.219 283.229 182.876 281.582 182.219L2.20636 56.2575C-0.735535 54.8708 -0.735535 52.7909 2.20636 51.4597L96.7909 8.6129C98.4372 7.95555 100.259 7.61279 102.108 7.61279C103.956 7.61279 105.778 7.95555 107.424 8.6129L386.783 134.588C389.707 135.905 389.725 138.069 386.783 139.372Z" fill="#013947"/>
<path d="M7.9299 43.7775C7.99161 43.2612 8.22766 42.7669 8.6138 42.3454C8.99994 41.9239 9.52237 41.5902 10.1275 41.3787L98.9699 1.26349C100.616 0.606146 102.438 0.263428 104.287 0.263428C106.135 0.263428 107.957 0.606146 109.603 1.26349L380.756 123.925C381.357 124.139 381.875 124.474 382.257 124.895C382.64 125.316 382.874 125.809 382.936 126.324V133.617C382.877 134.132 382.641 134.626 382.255 135.045C381.868 135.465 381.344 135.795 380.738 136.002L291.931 176.131C290.284 176.785 288.462 177.126 286.615 177.126C284.767 177.126 282.946 176.785 281.298 176.131L10.1452 53.6503C9.54141 53.4411 9.01968 53.1099 8.63348 52.6908C8.24731 52.2717 8.01056 51.7797 7.94763 51.2653L7.9299 43.7775Z" fill="#03BAE4"/>
<path opacity="0.5" d="M7.9299 43.7775C7.99161 43.2612 8.22766 42.7669 8.6138 42.3454C8.99994 41.9239 9.52237 41.5902 10.1275 41.3787L98.9699 1.26349C100.616 0.606146 102.438 0.263428 104.287 0.263428C106.135 0.263428 107.957 0.606146 109.603 1.26349L380.756 123.925C381.357 124.139 381.875 124.474 382.257 124.895C382.64 125.316 382.874 125.809 382.936 126.324V133.617C382.877 134.132 382.641 134.626 382.255 135.045C381.868 135.465 381.344 135.795 380.738 136.002L291.931 176.131C290.284 176.785 288.462 177.126 286.615 177.126C284.767 177.126 282.946 176.785 281.298 176.131L10.1452 53.6503C9.54141 53.4411 9.01968 53.1099 8.63348 52.6908C8.24731 52.2717 8.01056 51.7797 7.94763 51.2653L7.9299 43.7775Z" fill="black"/>
<path d="M291.878 168.671L380.685 128.722C383.61 127.405 383.627 125.27 380.685 123.939L109.533 1.27741C107.886 0.620062 106.064 0.277344 104.216 0.277344C102.368 0.277344 100.546 0.620062 98.8992 1.27741L10.0567 41.4065C7.13254 42.7931 7.13254 44.873 10.0567 46.2042L281.21 168.685C282.863 169.342 284.692 169.683 286.546 169.68C288.4 169.678 290.228 169.332 291.878 168.671Z" fill="#03BAE4"/>
<path opacity="0.3" d="M291.878 168.671L380.685 128.722C383.61 127.405 383.627 125.27 380.685 123.939L109.533 1.27741C107.886 0.620062 106.064 0.277344 104.216 0.277344C102.368 0.277344 100.546 0.620062 98.8992 1.27741L10.0567 41.4065C7.13254 42.7931 7.13254 44.873 10.0567 46.2042L281.21 168.685C282.863 169.342 284.692 169.683 286.546 169.68C288.4 169.678 290.228 169.332 291.878 168.671Z" fill="black"/>
<path d="M286.916 169.656V177.116C288.648 177.1 290.352 176.773 291.896 176.159L380.668 136.03C381.276 135.82 381.802 135.488 382.191 135.066C382.581 134.644 382.819 134.149 382.883 133.631V126.324C382.814 126.84 382.573 127.334 382.185 127.755C381.796 128.176 381.273 128.509 380.668 128.723L291.896 168.685C290.359 169.316 288.651 169.649 286.916 169.656Z" fill="#03BAE4"/>
<path opacity="0.7" d="M286.916 169.656V177.116C288.648 177.1 290.352 176.773 291.896 176.159L380.668 136.03C381.276 135.82 381.802 135.488 382.191 135.066C382.581 134.644 382.819 134.149 382.883 133.631V126.324C382.814 126.84 382.573 127.334 382.185 127.755C381.796 128.176 381.273 128.509 380.668 128.723L291.896 168.685C290.359 169.316 288.651 169.649 286.916 169.656Z" fill="black"/>
<path d="M173.511 52.9292L163.391 57.505C163.189 57.5884 162.964 57.6312 162.735 57.6298L153.414 53.567L164.295 48.7693L173.511 52.9292Z" fill="#013947"/>
<path d="M161.334 47.4385L151.162 52.0283C150.974 52.0991 150.767 52.1325 150.559 52.1253H150.187L141.237 48.0764L152.119 43.2925L161.334 47.4385Z" fill="#013947"/>
<path d="M194.016 62.2057L183.861 66.7955C183.673 66.8647 183.466 66.898 183.258 66.8925L168.159 60.2228L179.04 55.439L194.016 62.2057Z" fill="#013947"/>
<path d="M206.19 67.7109L196.053 72.2868C195.86 72.361 195.647 72.399 195.432 72.3977L186.093 68.3349L196.974 63.551L206.19 67.7109Z" fill="#013947"/>
<path d="M261.839 139.705L252.499 135.642L263.381 130.858L272.597 135.018L262.442 139.621C262.249 139.678 262.045 139.706 261.839 139.705Z" fill="#013947"/>
<path d="M218.384 73.2021L208.283 77.778C208.075 77.8642 207.844 77.9071 207.609 77.9028L198.287 73.84L209.169 69.0422L218.384 73.2021Z" fill="#013947"/>
<path d="M150.525 54.9956L159.741 59.1555L149.604 63.7314C149.413 63.8118 149.199 63.8502 148.983 63.8423L139.644 59.7795L150.525 54.9956Z" fill="#013947"/>
<path d="M184.568 92.3096L175.228 88.2468L186.128 83.4629L195.343 87.6228L185.188 92.2125C184.995 92.2835 184.782 92.3168 184.568 92.3096Z" fill="#013947"/>
<path d="M136.718 58.3511L127.396 54.2882L138.278 49.4905L147.494 53.6504L137.321 58.2401C137.135 58.3158 136.928 58.3539 136.718 58.3511Z" fill="#013947"/>
<path d="M196.745 97.8562L187.423 93.7934L198.304 88.9956L207.52 93.1555L197.401 97.7314C197.201 97.8189 196.974 97.8621 196.745 97.8562Z" fill="#013947"/>
<path d="M208.919 103.403L199.597 99.3398L210.479 94.542L219.694 98.7019L209.539 103.292C209.346 103.366 209.134 103.404 208.919 103.403Z" fill="#013947"/>
<path d="M160.219 81.3554L140.636 72.6612L165.27 61.6514L175.708 66.3936L162.824 72.2036C162.72 72.2405 162.631 72.2986 162.566 72.3718C162.5 72.445 162.461 72.5305 162.452 72.6196C162.458 72.6986 162.49 72.7749 162.546 72.8408C162.603 72.9066 162.68 72.9595 162.771 72.994L170.906 76.6685L160.804 81.2306C160.624 81.3078 160.424 81.3506 160.219 81.3554Z" fill="#013947"/>
<path d="M242.733 84.2116L232.578 88.8014C232.39 88.8722 232.183 88.9056 231.975 88.8985L222.636 84.8356L233.535 80.0518L242.733 84.2116Z" fill="#013947"/>
<path d="M172.394 86.8604L163.054 82.7976L173.936 78.0137L183.151 82.1736L173.067 86.7217C172.863 86.8146 172.63 86.8625 172.394 86.8604Z" fill="#013947"/>
<path d="M311.161 137.112L301.821 133.049L312.72 128.251L321.936 132.411L311.817 136.973C311.616 137.061 311.391 137.109 311.161 137.112Z" fill="#013947"/>
<path d="M340.172 128.223L329.999 132.827C329.815 132.89 329.616 132.923 329.414 132.924H329.042L320.075 128.875L330.974 124.091L340.172 128.223Z" fill="#013947"/>
<path d="M294.182 141.882H293.809L284.948 137.833L295.83 133.049L305.045 137.209L294.873 141.798C294.654 141.868 294.417 141.896 294.182 141.882Z" fill="#013947"/>
<path d="M286.19 150.7L276.85 146.638L287.75 141.854L296.965 146.014L286.846 150.576C286.647 150.666 286.42 150.709 286.19 150.7Z" fill="#013947"/>
<path d="M327.996 122.718L317.841 127.322C317.649 127.383 317.445 127.416 317.238 127.419L307.898 123.356L318.798 118.572L327.996 122.718Z" fill="#013947"/>
<path d="M274.014 145.21L264.692 141.133L275.573 136.349L284.771 140.509L274.616 145.099C274.429 145.173 274.223 145.211 274.014 145.21Z" fill="#013947"/>
<path d="M291.453 106.176L281.315 110.766C281.121 110.835 280.909 110.869 280.695 110.863L271.355 106.814L282.255 102.016L291.453 106.176Z" fill="#013947"/>
<path d="M279.278 100.713L269.159 105.288C268.964 105.374 268.744 105.417 268.521 105.413L259.181 101.35L270.063 96.5527L279.278 100.713Z" fill="#013947"/>
<path d="M267.102 95.2078L257 99.7837C256.798 99.8681 256.573 99.9111 256.344 99.9085L247.004 95.8456L257.886 91.0618L267.102 95.2078Z" fill="#013947"/>
<path d="M303.646 111.722L293.527 116.284C293.333 116.373 293.113 116.421 292.889 116.423L283.532 112.346L294.449 107.562L303.646 111.722Z" fill="#013947"/>
<path d="M254.91 89.7165L244.755 94.3063C244.565 94.3719 244.36 94.405 244.152 94.4033L234.812 90.3405L245.712 85.5566L254.91 89.7165Z" fill="#013947"/>
<path d="M315.821 117.269L305.666 121.845C305.473 121.919 305.261 121.957 305.046 121.956L295.724 117.893L306.606 113.109L315.821 117.269Z" fill="#013947"/>
<path d="M230.559 78.7068L220.386 83.3104C220.201 83.3733 220.002 83.4063 219.801 83.4074L210.461 79.3446L221.343 74.5469L230.559 78.7068Z" fill="#013947"/>
<path d="M200.13 77.4033L190.011 81.9654C189.81 82.0516 189.584 82.0947 189.355 82.0901H188.983L180.033 78.0412L190.915 73.2573L200.13 77.4033Z" fill="#013947"/>
<path d="M134.396 35.2776L124.277 39.8396C124.081 39.9223 123.862 39.9652 123.639 39.9644L114.299 35.9016L125.199 31.1177L134.396 35.2776Z" fill="#013947"/>
<path d="M122.222 29.7729L112.102 34.3349C111.907 34.4201 111.687 34.4631 111.464 34.4597L102.124 30.3969L113.006 25.613L122.222 29.7729Z" fill="#013947"/>
<path d="M212.305 82.8947L202.185 87.4707C201.989 87.5534 201.77 87.5963 201.547 87.5954L192.207 83.5326L203.089 78.7349L212.305 82.8947Z" fill="#013947"/>
<path d="M110.045 24.2678L99.9259 28.8437C99.7294 28.9254 99.5104 28.9682 99.2879 28.9685L89.9482 24.8918L100.83 20.1079L110.045 24.2678Z" fill="#013947"/>
<path d="M177.178 76.5855H176.806L167.856 72.5365L178.738 67.7527L187.954 71.9126L177.834 76.4746C177.631 76.5542 177.405 76.5924 177.178 76.5855Z" fill="#013947"/>
<path d="M120.644 41.4895L110.542 46.0515C110.336 46.1397 110.104 46.1873 109.869 46.1901L100.547 42.1273L111.428 37.3296L120.644 41.4895Z" fill="#013947"/>
<path d="M96.2773 30.4797L86.1756 35.0418C85.9767 35.1329 85.7503 35.1807 85.5198 35.1804L76.1801 31.1176L87.0971 26.3337L96.2773 30.4797Z" fill="#013947"/>
<path d="M97.7297 40.6855L88.39 36.6227L99.2893 31.825L108.505 35.9848L98.35 40.5746C98.1571 40.6488 97.9447 40.6868 97.7297 40.6855Z" fill="#013947"/>
<path d="M60.1404 35.8045C59.9615 35.8661 59.7687 35.8991 59.5733 35.9016H59.1834L50.2336 31.8665L74.8854 20.8567L84.1011 25.0166L60.1404 35.8045Z" fill="#013947"/>
<path d="M224.497 88.3992L214.359 92.9751C214.165 93.0609 213.945 93.104 213.721 93.0999H213.349L204.382 89.0648L215.281 84.2671L224.497 88.3992Z" fill="#013947"/>
<path d="M83.9245 46.8975H83.5523L74.6025 42.8485L85.484 38.0647L94.6997 42.2246L84.5802 46.7866C84.3771 46.8663 84.1515 46.9044 83.9245 46.8975Z" fill="#013947"/>
<path d="M71.7477 41.3926L62.408 37.3298L73.3073 32.5459L82.5229 36.7058L72.4212 41.2678C72.2136 41.3528 71.982 41.3957 71.7477 41.3926Z" fill="#013947"/>
<path d="M285.391 115.883L275.271 120.445C275.071 120.534 274.846 120.582 274.615 120.583L265.293 116.52L276.175 111.723L285.391 115.883Z" fill="#013947"/>
<path d="M309.742 126.976L299.64 131.538C299.439 131.624 299.213 131.667 298.984 131.662H298.612L289.644 127.613L300.544 122.816L309.742 126.976Z" fill="#013947"/>
<path d="M269.831 130.886L260.491 126.823L271.408 122.025L280.606 126.185L270.433 130.775C270.248 130.852 270.041 130.89 269.831 130.886Z" fill="#013947"/>
<path d="M282.043 136.377L272.703 132.314L283.602 127.53L292.818 131.69L282.645 136.28C282.458 136.351 282.251 136.384 282.043 136.377Z" fill="#013947"/>
<path d="M257.657 125.381H257.267L248.317 121.346L259.198 116.548L268.414 120.708L258.312 125.27C258.11 125.351 257.884 125.39 257.657 125.381Z" fill="#013947"/>
<path d="M236.673 93.9046L226.536 98.4805C226.338 98.5573 226.119 98.5954 225.898 98.5914H225.526L216.576 94.5424L227.458 89.7585L236.673 93.9046Z" fill="#013947"/>
<path d="M233.288 114.371L223.948 110.308L234.847 105.524L244.063 109.684L233.943 114.246C233.741 114.329 233.516 114.372 233.288 114.371Z" fill="#013947"/>
<path d="M245.465 119.876L236.143 115.882L247.024 111.098L256.24 115.258L246.067 119.862C245.869 119.897 245.665 119.902 245.465 119.876Z" fill="#013947"/>
<path d="M261.024 104.914L250.923 109.476C250.722 109.563 250.496 109.606 250.267 109.601L240.927 105.538L251.809 100.754L261.024 104.914Z" fill="#013947"/>
<path d="M297.567 121.429L287.466 125.991C287.259 126.077 287.027 126.12 286.792 126.115L277.47 122.053L288.352 117.269L297.567 121.429Z" fill="#013947"/>
<path d="M248.848 99.4092L238.728 103.971C238.528 104.057 238.301 104.1 238.072 104.096L228.75 100.033L239.632 95.2493L248.848 99.4092Z" fill="#013947"/>
<path d="M273.181 110.405L263.079 114.981C262.879 115.067 262.652 115.11 262.424 115.106H262.051L253.084 111.071L263.983 106.273L273.181 110.405Z" fill="#013947"/>
<path d="M221.114 108.866L211.774 104.803L222.673 100.019L231.871 104.179L221.734 108.755C221.544 108.835 221.329 108.874 221.114 108.866Z" fill="#013947"/>
<path d="M149.125 41.9333L138.97 46.5231C138.781 46.5909 138.575 46.624 138.367 46.6201L129.027 42.5573L139.927 37.7734L149.125 41.9333Z" fill="#013947"/>
<path d="M343.149 129.568L352.364 133.728L342.192 138.318C342.004 138.389 341.797 138.422 341.589 138.415H341.217L332.249 134.366L343.149 129.568Z" fill="#013947"/>
<path d="M324.895 133.756L338.594 139.94L328.422 144.544C328.237 144.607 328.038 144.64 327.837 144.641H327.447L314.013 138.568L324.895 133.756Z" fill="#013947"/>
<path d="M357.93 121.152L369.078 126.185L358.94 130.747C358.746 130.833 358.526 130.876 358.302 130.872L347.049 125.949L357.93 121.152Z" fill="#013947"/>
<path d="M299.925 147.359L311.054 152.392L300.952 156.954C300.75 157.038 300.525 157.081 300.297 157.079L289.043 152.143L299.925 147.359Z" fill="#013947"/>
<path d="M307.935 138.54L324.824 146.166L314.669 150.756C314.48 150.824 314.274 150.857 314.067 150.853H313.695L297.035 143.338L307.935 138.54Z" fill="#013947"/>
<path d="M338.896 122.108L329.574 118.045L340.526 113.261L349.742 117.421L339.622 121.997C339.399 122.089 339.146 122.127 338.896 122.108Z" fill="#013947"/>
<path d="M297.302 158.604L287.182 163.18C286.983 163.254 286.765 163.292 286.544 163.291L272.721 157.204L283.602 152.42L297.302 158.604Z" fill="#013947"/>
<path d="M326.721 116.603L317.381 112.541L328.281 107.757L337.479 111.917L327.324 116.506C327.135 116.574 326.929 116.607 326.721 116.603Z" fill="#013947"/>
<path d="M272.703 92.2125H272.331L263.364 88.1635L274.263 83.3796L283.461 87.5395L273.341 92.1154C273.143 92.1909 272.923 92.2244 272.703 92.2125Z" fill="#013947"/>
<path d="M260.527 86.7634L251.187 82.7006L262.069 77.9028L271.284 82.0627L261.147 86.6386C260.958 86.7226 260.744 86.7657 260.527 86.7634Z" fill="#013947"/>
<path d="M284.877 97.704H284.505L275.644 93.655L286.526 88.8711L295.741 93.031L285.586 97.5791C285.369 97.6707 285.124 97.714 284.877 97.704Z" fill="#013947"/>
<path d="M302.37 105.608H301.981L293.031 101.573L303.912 96.7749L313.128 100.935L302.991 105.511C302.8 105.588 302.585 105.621 302.37 105.608Z" fill="#013947"/>
<path d="M314.545 111.112L305.205 107.036L316.087 102.252L325.302 106.412L315.147 111.001C314.961 111.077 314.754 111.115 314.545 111.112Z" fill="#013947"/>
<path d="M54.9829 49.1441L44.7925 53.7477C44.6067 53.8059 44.4078 53.8342 44.2077 53.8309H43.8355L34.9743 49.7819L45.8559 44.998L54.9829 49.1441Z" fill="#013947"/>
<path d="M118.446 77.8056L108.344 82.3676C108.147 82.4621 107.92 82.5102 107.689 82.5063L98.3491 78.4435L109.231 73.6458L118.446 77.8056Z" fill="#013947"/>
<path d="M79.334 60.1536L69.2145 64.7156C69.0186 64.7984 68.7991 64.8413 68.5765 64.8404H68.2043L47.0615 55.2865L57.943 50.5027L79.334 60.1536Z" fill="#013947"/>
<path d="M106.272 72.3147L96.1702 76.8628C95.9668 76.9577 95.7334 77.0058 95.4967 77.0015L86.157 72.9387L97.0563 68.1548L106.272 72.3147Z" fill="#013947"/>
<path d="M94.0776 66.8095L84.0113 71.3438C83.8076 71.451 83.5654 71.5044 83.3201 71.4964L73.9804 67.4335L84.8797 62.6497L94.0776 66.8095Z" fill="#013947"/>
<path d="M248.37 81.2166H247.98L239.03 77.1676L249.912 72.3699L259.127 76.5298L249.026 81.0918C248.824 81.1762 248.598 81.2192 248.37 81.2166Z" fill="#013947"/>
<path d="M47.3454 33.2532L56.561 37.4131L32.6181 48.2288C32.4335 48.2917 32.2346 48.3247 32.0332 48.3258H31.6611L22.7113 44.2768L47.3454 33.2532Z" fill="#013947"/>
<path d="M266.517 144.71L256.415 149.272C256.213 149.356 255.988 149.398 255.76 149.397L244.506 144.461L255.458 139.677L266.517 144.71Z" fill="#013947"/>
<path d="M252.429 138.332L242.327 142.894C242.122 142.985 241.89 143.033 241.654 143.033H241.281L172.058 111.723L182.957 106.925L252.429 138.332Z" fill="#013947"/>
<path d="M249.665 134.2L240.325 130.137L251.207 125.353L260.422 129.513L250.267 134.089C250.08 134.162 249.874 134.2 249.665 134.2Z" fill="#013947"/>
<path d="M280.624 151.075L270.522 155.637C270.321 155.725 270.096 155.772 269.866 155.776L258.612 150.839L269.494 146.042L280.624 151.075Z" fill="#013947"/>
<path d="M179.98 105.607L169.861 110.183C169.663 110.262 169.445 110.305 169.222 110.308H168.833L157.969 105.399L168.85 100.629L179.98 105.607Z" fill="#013947"/>
<path d="M151.783 92.8641L141.628 97.4538C141.436 97.5306 141.223 97.5688 141.008 97.5648H140.635L129.754 92.6561L140.635 87.8584L151.783 92.8641Z" fill="#013947"/>
<path d="M165.889 99.2429L155.717 103.833C155.528 103.9 155.322 103.934 155.114 103.93L143.86 98.9934L154.742 94.2095L165.889 99.2429Z" fill="#013947"/>
<path d="M137.676 86.4996L127.557 91.0616C127.356 91.1479 127.13 91.191 126.901 91.1864H126.529L113.095 85.113L123.977 80.3291L137.676 86.4996Z" fill="#013947"/>
<path d="M124.615 52.8459H124.242L115.275 48.8108L126.086 43.9854L135.301 48.1452L125.146 52.735C124.981 52.8006 124.8 52.8384 124.615 52.8459Z" fill="#013947"/>
<path d="M109.267 70.7892H108.895L99.9272 66.7402L110.809 61.9563L120.024 66.1162L109.887 70.706C109.692 70.7721 109.479 70.8007 109.267 70.7892Z" fill="#013947"/>
<path d="M152.208 90.1881L126.847 78.8732L137.746 74.0894L162.983 85.4874L152.81 90.0772C152.625 90.154 152.417 90.1922 152.208 90.1881Z" fill="#013947"/>
<path d="M82.3465 58.6148H81.9566L73.0067 54.5659L83.8883 49.782L93.104 53.9419L82.949 58.5317C82.7588 58.5947 82.5528 58.6232 82.3465 58.6148Z" fill="#013947"/>
<path d="M70.1545 53.1233H69.7823L60.8325 49.0883L71.7141 44.2905L80.9297 48.4504L70.7925 53.0402C70.591 53.1065 70.3725 53.135 70.1545 53.1233Z" fill="#013947"/>
<path d="M164.4 95.6931L155.061 91.6303L165.942 86.8325L175.158 90.9924L165.038 95.5683C164.841 95.6485 164.622 95.6912 164.4 95.6931Z" fill="#013947"/>
<path d="M96.0987 52.4026H95.7265L86.7767 48.3536L97.7291 43.5559L106.945 47.7158L96.843 52.2639C96.6208 52.3722 96.3594 52.4209 96.0987 52.4026Z" fill="#013947"/>
<path d="M225.329 123.19L215.99 119.127L226.889 114.343L236.087 118.503L225.932 123.093C225.744 123.164 225.537 123.197 225.329 123.19Z" fill="#013947"/>
<path d="M176.576 101.184L167.237 97.1212L178.136 92.3096L187.334 96.4695L177.161 101.073C176.977 101.138 176.779 101.176 176.576 101.184Z" fill="#013947"/>
<path d="M237.471 128.695H237.098L228.237 124.646L239.119 119.862L248.334 124.022L238.162 128.611C237.946 128.69 237.706 128.719 237.471 128.695Z" fill="#013947"/>
<path d="M213.12 117.699L203.78 113.636L214.697 108.838L223.913 112.998L213.722 117.602C213.534 117.672 213.328 117.705 213.12 117.699Z" fill="#013947"/>
<path d="M200.927 112.194H200.52L191.57 108.145L202.487 103.403L211.703 107.563L201.583 112.139C201.375 112.202 201.148 112.222 200.927 112.194Z" fill="#013947"/>
<path d="M188.751 106.689H188.379L179.411 102.64L190.311 97.8562L199.526 102.016L189.354 106.606C189.162 106.665 188.957 106.693 188.751 106.689Z" fill="#013947"/>
<path d="M218.685 67.808L209.381 63.7452L220.28 58.9475L229.496 63.1074L219.377 67.6694C219.17 67.7708 218.929 67.8193 218.685 67.808Z" fill="#013947"/>
<path d="M57.9777 47.6187H57.6055L48.638 43.5836L59.5373 38.7859L68.7529 42.9458L58.5803 47.5494C58.3874 47.604 58.1825 47.6276 57.9777 47.6187Z" fill="#013947"/>
<path d="M194.317 56.7978L184.995 52.735L195.877 47.9373L205.092 52.0971L194.991 56.6592C194.785 56.7502 194.553 56.798 194.317 56.7978Z" fill="#013947"/>
<path d="M167.273 44.582L157.933 40.5192L168.832 35.7214L178.03 39.8813L167.911 44.4572C167.716 44.5429 167.496 44.586 167.273 44.582Z" fill="#013947"/>
<path d="M179.447 50.0866L170.125 46.0238L181.024 41.2261L190.24 45.386L180.12 49.9618C179.914 50.0486 179.681 50.0916 179.447 50.0866Z" fill="#013947"/>
<path d="M230.86 73.3129L221.52 69.2362L232.419 64.4524L241.617 68.6123L231.498 73.1881C231.3 73.2673 231.082 73.31 230.86 73.3129Z" fill="#013947"/>
<path d="M206.509 62.3031H206.119L197.258 58.2541L208.051 53.4841L217.267 57.644L207.165 62.206C206.96 62.2809 206.735 62.3143 206.509 62.3031Z" fill="#013947"/>
<path d="M155.096 39.0769L145.756 35.0141L156.638 30.2302L165.854 34.3901L155.734 38.9521C155.54 39.0378 155.319 39.0809 155.096 39.0769Z" fill="#013947"/>
<path d="M107.335 14.3118L98.013 10.249L103.932 7.72534L113.148 11.8852L107.973 14.1732C107.777 14.2567 107.558 14.3041 107.335 14.3118Z" fill="#013947"/>
<path d="M87.0959 23.4638L77.7562 19.401L88.6555 14.6587L97.8711 18.8186L87.7516 23.3944C87.5434 23.4587 87.3184 23.4826 87.0959 23.4638Z" fill="#013947"/>
<path d="M143.807 30.8266H143.435L134.485 26.7777L140.404 24.2817L149.62 28.4416L144.463 30.7296C144.256 30.7981 144.032 30.8312 143.807 30.8266Z" fill="#013947"/>
<path d="M131.704 25.3217H131.332L122.47 21.2866L128.283 18.8184L137.499 22.9782L132.306 25.2662C132.113 25.3198 131.907 25.3388 131.704 25.3217Z" fill="#013947"/>
<path d="M119.527 19.8169L110.187 15.7541L116.107 13.272L125.322 17.4319L120.112 19.7337C119.926 19.7919 119.727 19.8202 119.527 19.8169Z" fill="#013947"/>
</svg>
