<svg width="437" height="350" viewBox="0 0 437 350" fill="none" xmlns="http://www.w3.org/2000/svg">
<g opacity="0.8">
<rect x="88.8057" width="111.586" height="7.67152" rx="3.83576" fill="#F6D737"/>
<rect x="212.248" width="96.2427" height="7.67152" rx="3.83576" fill="#A036FC"/>
<rect x="321.044" width="46.0291" height="7.67152" rx="3.83576" fill="#03BAE4"/>
<rect x="378.929" width="124.139" height="7.67152" rx="3.83576" fill="#A036FC"/>
<rect x="0.932129" y="26.0647" width="89.2686" height="7.67152" rx="3.83576" fill="#E6F4F3"/>
<rect x="102.057" y="26.0647" width="125.534" height="7.67152" rx="3.83576" fill="#03BAE4"/>
<rect x="240.144" y="26.0647" width="43.2395" height="7.67152" rx="3.83576" fill="#E6F4F3"/>
<rect x="295.937" y="26.0647" width="92.0582" height="7.67152" rx="3.83576" fill="#1ABE5E"/>
<rect x="399.851" y="26.0647" width="103.217" height="7.67152" rx="3.83576" fill="#E6F4F3"/>
<rect x="69.2788" y="52.1294" width="46.0291" height="8.36893" rx="4.18446" fill="#A036FC"/>
<rect x="127.164" y="52.1294" width="69.7411" height="8.36893" rx="4.18446" fill="#F6D737"/>
<rect x="208.761" y="52.1294" width="116.468" height="8.36893" rx="4.18446" fill="#F6D737"/>
<rect x="337.084" y="52.1294" width="46.0291" height="8.36893" rx="4.18446" fill="#A036FC"/>
<rect x="395.667" y="52.1294" width="107.401" height="8.36893" rx="4.18446" fill="#F6D737"/>
<rect x="52.5405" y="78.8916" width="102.519" height="7.67152" rx="3.83576" fill="#E6F4F3"/>
<rect x="166.916" y="78.8916" width="46.0291" height="7.67152" rx="3.83576" fill="#03BAE4"/>
<rect x="224.801" y="78.8916" width="111.586" height="7.67152" rx="3.83576" fill="#1ABE5E"/>
<rect x="348.243" y="78.8916" width="96.9401" height="7.67152" rx="3.83576" fill="#1ABE5E"/>
<rect x="85.3188" y="104.956" width="70.4385" height="8.36893" rx="4.18446" fill="#1ABE5E"/>
<rect x="168.311" y="104.956" width="32.7783" height="8.36893" rx="4.18446" fill="#E6F4F3"/>
<rect x="212.945" y="104.956" width="107.401" height="8.36893" rx="4.18446" fill="#A036FC"/>
<rect x="332.202" y="104.956" width="66.254" height="8.36893" rx="4.18446" fill="#03BAE4"/>
<rect x="410.312" y="104.956" width="92.7556" height="8.36893" rx="4.18446" fill="#A036FC"/>
<rect x="1.62939" y="131.719" width="91.3608" height="7.67152" rx="3.83576" fill="#F6D737"/>
<rect x="104.846" y="131.719" width="34.8705" height="7.67152" rx="3.83576" fill="#1ABE5E"/>
<rect x="151.573" y="131.719" width="96.9401" height="7.67152" rx="3.83576" fill="#A036FC"/>
<rect x="260.369" y="131.719" width="46.0291" height="7.67152" rx="3.83576" fill="#03BAE4"/>
<rect x="318.254" y="131.719" width="124.139" height="7.67152" rx="3.83576" fill="#A036FC"/>
<rect x="88.8057" y="157.783" width="111.586" height="7.67152" rx="3.83576" fill="#03BAE4"/>
<rect x="212.248" y="157.783" width="96.2427" height="7.67152" rx="3.83576" fill="#A036FC"/>
<rect x="321.044" y="157.783" width="46.0291" height="7.67152" rx="3.83576" fill="#03BAE4"/>
<rect x="378.929" y="157.783" width="124.139" height="7.67152" rx="3.83576" fill="#1ABE5E"/>
<rect x="0.932129" y="183.848" width="89.2686" height="8.36893" rx="4.18446" fill="#A036FC"/>
<rect x="102.057" y="183.848" width="125.534" height="8.36893" rx="4.18446" fill="#F6D737"/>
<rect x="240.144" y="183.848" width="43.2395" height="8.36893" rx="4.18446" fill="#03BAE4"/>
<rect x="295.937" y="183.848" width="92.0582" height="8.36893" rx="4.18446" fill="#F6D737"/>
<rect x="399.851" y="183.848" width="103.217" height="8.36893" rx="4.18446" fill="#03BAE4"/>
<rect x="69.2788" y="210.61" width="46.0291" height="7.67152" rx="3.83576" fill="#03BAE4"/>
<rect x="127.164" y="210.61" width="69.7411" height="7.67152" rx="3.83576" fill="#E6F4F3"/>
<rect x="208.761" y="210.61" width="116.468" height="7.67152" rx="3.83576" fill="#A036FC"/>
<rect x="337.084" y="210.61" width="46.0291" height="7.67152" rx="3.83576" fill="#E6F4F3"/>
<rect x="395.667" y="210.61" width="107.401" height="7.67152" rx="3.83576" fill="#1ABE5E"/>
<rect x="52.5405" y="236.675" width="102.519" height="8.36893" rx="4.18446" fill="#A036FC"/>
<rect x="166.916" y="236.675" width="46.0291" height="8.36893" rx="4.18446" fill="#A036FC"/>
<rect x="224.801" y="236.675" width="111.586" height="8.36893" rx="4.18446" fill="#E6F4F3"/>
<rect x="348.243" y="236.675" width="96.9401" height="8.36893" rx="4.18446" fill="#1ABE5E"/>
<rect x="85.3188" y="263.437" width="70.4385" height="7.67152" rx="3.83576" fill="#1ABE5E"/>
<rect x="168.311" y="263.437" width="32.7783" height="7.67152" rx="3.83576" fill="#F6D737"/>
<rect x="212.945" y="263.437" width="107.401" height="7.67152" rx="3.83576" fill="#F6D737"/>
<rect x="332.202" y="263.437" width="66.254" height="7.67152" rx="3.83576" fill="#E6F4F3"/>
<rect x="410.312" y="263.437" width="92.7556" height="7.67152" rx="3.83576" fill="#F6D737"/>
<rect x="69.2788" y="289.502" width="46.0291" height="7.67152" rx="3.83576" fill="#03BAE4"/>
<rect x="127.164" y="289.502" width="69.7411" height="7.67152" rx="3.83576" fill="#03BAE4"/>
<rect x="208.761" y="289.502" width="116.468" height="7.67152" rx="3.83576" fill="#A036FC"/>
<rect x="337.084" y="289.502" width="46.0291" height="7.67152" rx="3.83576" fill="#03BAE4"/>
<rect x="395.667" y="289.502" width="107.401" height="7.67152" rx="3.83576" fill="#F6D737"/>
<rect x="88.8057" y="315.566" width="111.586" height="8.36893" rx="4.18446" fill="#F6D737"/>
<rect x="212.248" y="315.566" width="96.2427" height="8.36893" rx="4.18446" fill="#03BAE4"/>
<rect x="321.044" y="315.566" width="46.0291" height="8.36893" rx="4.18446" fill="#1ABE5E"/>
<rect x="378.929" y="315.566" width="124.139" height="8.36893" rx="4.18446" fill="#1ABE5E"/>
<rect x="85.3188" y="342.329" width="70.4385" height="7.67152" rx="3.83576" fill="#03BAE4"/>
<rect x="168.311" y="342.329" width="32.7783" height="7.67152" rx="3.83576" fill="#A036FC"/>
<rect x="212.945" y="342.329" width="107.401" height="7.67152" rx="3.83576" fill="#F6D737"/>
<rect x="332.202" y="342.329" width="66.254" height="7.67152" rx="3.83576" fill="#A036FC"/>
<rect x="410.312" y="342.329" width="92.7556" height="7.67152" rx="3.83576" fill="#E6F4F3"/>
</g>
</svg>
