<svg width="406" height="452" viewBox="0 0 406 452" fill="none" xmlns="http://www.w3.org/2000/svg">
<path d="M142.453 429.1L86.4149 403.752C80.6374 401.131 77.7486 397.72 77.7486 394.295C77.7486 390.87 77.7486 388.194 77.7486 388.194L145.147 358.312C146.769 357.48 148.119 356.361 149.089 355.046C150.059 353.731 150.62 352.257 150.729 350.741V296.663L248.61 340.91V394.989C248.499 396.502 247.935 397.974 246.966 399.286C245.997 400.598 244.648 401.715 243.028 402.546L184.278 429.086C172.723 434.314 153.99 434.313 142.453 429.1Z" fill="#03BAE4"/>
<g opacity="0.5">
<path d="M142.453 429.1L86.4149 403.752C80.6374 401.131 77.7486 397.72 77.7486 394.295C77.7486 390.87 77.7486 388.194 77.7486 388.194L145.147 358.312C146.769 357.48 148.119 356.361 149.089 355.046C150.059 353.731 150.62 352.257 150.729 350.741V296.663L248.61 340.91V394.988C248.499 396.502 247.935 397.973 246.966 399.286C245.997 400.598 244.648 401.714 243.028 402.546L184.278 429.086C172.723 434.313 153.99 434.313 142.453 429.1Z" fill="black"/>
</g>
<path d="M225.111 404.57V410.644L243.046 402.56C244.668 401.727 246.018 400.609 246.988 399.294C247.957 397.979 248.519 396.504 248.628 394.989V340.91L229.967 332.493C229.595 336.196 229.169 340.023 228.779 343.753L241.858 349.674V391.91C241.758 393.424 241.202 394.898 240.235 396.211C239.268 397.525 237.917 398.641 236.294 399.468L225.111 404.57Z" fill="#03BAE4"/>
<path opacity="0.7" d="M225.111 404.57V410.644L243.046 402.56C244.668 401.727 246.018 400.609 246.988 399.294C247.957 397.979 248.519 396.504 248.628 394.989V340.91L229.967 332.493C229.595 336.196 229.169 340.023 228.779 343.753L241.858 349.674V391.91C241.758 393.424 241.202 394.898 240.235 396.211C239.268 397.525 237.917 398.641 236.294 399.468L225.111 404.57Z" fill="black"/>
<path d="M241.858 391.952C241.755 393.467 241.195 394.941 240.225 396.254C239.255 397.567 237.902 398.683 236.276 399.509L184.296 422.998C172.741 428.226 154.008 428.226 142.453 422.998L86.3797 397.651C74.8247 392.437 74.8247 383.979 86.3797 378.765L138.395 355.262C140.021 354.435 141.374 353.32 142.344 352.007C143.315 350.693 143.874 349.219 143.978 347.704V305.468L241.858 349.715V391.952Z" fill="#03BAE4"/>
<path opacity="0.3" d="M241.858 391.952C241.755 393.467 241.195 394.941 240.225 396.254C239.255 397.567 237.902 398.683 236.276 399.509L184.296 422.998C172.741 428.226 154.008 428.226 142.453 422.998L86.3797 397.651C74.8247 392.437 74.8247 383.979 86.3797 378.765L138.395 355.262C140.021 354.435 141.374 353.32 142.344 352.007C143.315 350.693 143.874 349.219 143.978 347.704V305.468L241.858 349.715V391.952Z" fill="black"/>
<path opacity="0.7" d="M127.035 360.406L138.395 355.275C140.021 354.449 141.374 353.334 142.344 352.021C143.315 350.707 143.874 349.233 143.978 347.718V305.468L241.858 349.715V391.952C241.755 393.467 241.195 394.941 240.225 396.254C239.255 397.567 237.902 398.683 236.276 399.509L225.111 404.556L127.035 360.406Z" fill="#03BAE4"/>
<path opacity="0.6" d="M127.035 360.406L138.395 355.275C140.021 354.449 141.374 353.334 142.344 352.021C143.315 350.707 143.874 349.233 143.978 347.718V305.468L241.858 349.715V391.952C241.755 393.467 241.195 394.941 240.225 396.254C239.255 397.567 237.902 398.683 236.276 399.509L225.111 404.556L127.035 360.406Z" fill="black"/>
<path d="M77.732 388.208V394.365C77.732 397.79 80.6385 401.187 86.3982 403.808L142.437 429.031C148.578 431.605 155.443 432.939 162.41 432.913V426.84C155.443 426.866 148.578 425.531 142.437 422.957L86.3982 397.596C80.6385 395.058 77.732 391.592 77.732 388.208Z" fill="#03BAE4"/>
<path opacity="0.2" d="M77.732 388.208V394.365C77.732 397.79 80.6385 401.187 86.3982 403.808L142.437 429.031C148.578 431.605 155.443 432.939 162.41 432.913V426.84C155.443 426.866 148.578 425.531 142.437 422.957L86.3982 397.596C80.6385 395.058 77.732 391.592 77.732 388.208Z" fill="black"/>
<path d="M399.021 450.274C396.906 451.073 394.579 451.473 392.23 451.439C389.881 451.405 387.575 450.939 385.499 450.079L6.98373 279.094C4.95645 278.056 3.26981 276.658 2.05991 275.016C0.850037 273.373 0.150848 271.531 0.0188293 269.637V10.421C0.100922 8.58534 0.736053 6.79082 1.87247 5.1836C3.00888 3.57638 4.61444 2.20192 6.55841 1.17218C8.66953 0.369209 10.9934 -0.0317722 13.3404 0.00196567C15.6873 0.0357035 17.9908 0.503208 20.0629 1.36631L398.578 172.352C400.607 173.386 402.295 174.78 403.505 176.421C404.716 178.061 405.414 179.903 405.543 181.794V441.094C405.441 442.915 404.798 444.693 403.667 446.286C402.535 447.879 400.944 449.244 399.021 450.274Z" fill="#03BAE4"/>
<path opacity="0.3" d="M399.021 450.274C396.906 451.073 394.579 451.473 392.23 451.439C389.881 451.405 387.575 450.939 385.499 450.079L6.98373 279.094C4.95645 278.056 3.26981 276.658 2.05991 275.016C0.850037 273.373 0.150848 271.531 0.0188293 269.637V10.421C0.100922 8.58534 0.736053 6.79082 1.87247 5.1836C3.00888 3.57638 4.61444 2.20192 6.55841 1.17218C8.66953 0.369209 10.9934 -0.0317722 13.3404 0.00196567C15.6873 0.0357035 17.9908 0.503208 20.0629 1.36631L398.578 172.352C400.607 173.386 402.295 174.78 403.505 176.421C404.716 178.061 405.414 179.903 405.543 181.794V441.094C405.441 442.915 404.798 444.693 403.667 446.286C402.535 447.879 400.944 449.244 399.021 450.274Z" fill="black"/>
<path d="M385.498 450.065L6.98276 279.08C4.9516 278.047 3.26068 276.653 2.04739 275.012C0.834106 273.372 0.13266 271.53 0.00012207 269.637V10.407C0.00012207 6.92658 3.13699 5.52609 6.98276 7.25937L385.498 178.245C387.535 179.289 389.227 180.695 390.437 182.348C391.648 184.001 392.342 185.854 392.463 187.757V446.918C392.463 450.398 389.344 451.813 385.498 450.065Z" fill="#03BAE4"/>
<path d="M385.498 450.065L6.98276 279.08C4.9516 278.047 3.26068 276.653 2.04739 275.012C0.834106 273.372 0.13266 271.53 0.00012207 269.637V10.407C0.00012207 6.92658 3.13699 5.52609 6.98276 7.25937L385.498 178.245C387.535 179.289 389.227 180.695 390.437 182.348C391.648 184.001 392.342 185.854 392.463 187.757V446.918C392.463 450.398 389.344 451.813 385.498 450.065Z" fill="#03BAE4"/>
<path opacity="0.5" d="M385.498 450.065L6.98276 279.08C4.9516 278.047 3.26068 276.653 2.04739 275.012C0.834106 273.372 0.13266 271.53 0.00012207 269.637V10.407C0.00012207 6.92658 3.13699 5.52609 6.98276 7.25937L385.498 178.245C387.535 179.289 389.227 180.695 390.437 182.348C391.648 184.001 392.342 185.854 392.463 187.757V446.918C392.463 450.398 389.344 451.813 385.498 450.065Z" fill="black"/>
<path d="M386.526 450.481C388.494 451.14 390.619 451.462 392.758 451.426C394.897 451.39 397.002 450.997 398.932 450.273C400.876 449.241 402.482 447.864 403.618 446.254C404.755 444.645 405.39 442.848 405.472 441.011V411.892L392.393 417.812V446.932C392.481 450.107 389.911 451.535 386.526 450.481Z" fill="#03BAE4"/>
<path opacity="0.7" d="M386.526 450.481C388.494 451.14 390.619 451.462 392.758 451.426C394.897 451.39 397.002 450.997 398.932 450.273C400.876 449.241 402.482 447.864 403.618 446.254C404.755 444.645 405.39 442.848 405.472 441.011V411.892L392.393 417.812V446.932C392.481 450.107 389.911 451.535 386.526 450.481Z" fill="black"/>
<path d="M392.463 417.771V446.89C392.463 450.37 389.344 451.785 385.498 450.038L6.98276 279.08C4.9516 278.047 3.26068 276.653 2.04739 275.012C0.834106 273.372 0.13266 271.53 0.00012207 269.637V240.449L392.463 417.771Z" fill="#03BAE4"/>
<g opacity="0.5">
<path d="M392.463 417.771V446.89C392.463 450.371 389.344 451.785 385.498 450.038L6.98276 279.08C4.9516 278.047 3.26068 276.653 2.04739 275.013C0.834106 273.372 0.13266 271.53 0.00012207 269.638V240.449L392.463 417.771Z" fill="black"/>
</g>
<path d="M379.384 396.264V191.043C379.31 189.907 378.892 188.8 378.165 187.814C377.438 186.828 376.422 185.991 375.201 185.372L17.2087 23.6772C14.9048 22.6372 13.0262 23.4831 13.0262 25.5769V230.742C13.1046 231.878 13.5243 232.984 14.2509 233.969C14.9776 234.955 15.9909 235.792 17.2087 236.414L375.201 398.095C377.523 399.19 379.384 398.344 379.384 396.264Z" fill="#342C3E"/>
<path d="M196.242 340.952C198.147 341.921 199.732 343.229 200.868 344.769C202.005 346.309 202.66 348.037 202.781 349.813C202.781 353.071 199.857 354.402 196.242 352.766C194.339 351.795 192.755 350.487 191.619 348.947C190.483 347.408 189.826 345.68 189.702 343.905C189.702 340.633 192.626 339.316 196.242 340.952Z" fill="#03BAE4"/>
<path d="M390.426 182.294C391.679 183.954 392.385 185.831 392.481 187.757V417.771L405.561 411.85V181.795C405.459 179.891 404.752 178.037 403.505 176.401L390.426 182.294Z" fill="#03BAE4"/>
<path opacity="0.7" d="M390.426 182.294C391.679 183.954 392.385 185.831 392.481 187.757V417.771L405.561 411.85V181.795C405.459 179.891 404.752 178.037 403.505 176.401L390.426 182.294Z" fill="black"/>
<g opacity="0.6" filter="url(#filter0_f_99_953)">
<rect width="64.4778" height="4.46099" rx="2.2305" transform="matrix(0.911331 0.411674 0 1 26.3213 43.9023)" fill="#F6D737"/>
<rect width="29.2165" height="4.46099" rx="2.2305" transform="matrix(0.911331 0.411674 0 1 91.9673 73.5569)" fill="#A036FC"/>
<rect width="70.2707" height="4.46099" rx="2.2305" transform="matrix(0.911331 0.411674 0 1 125.481 88.6953)" fill="#F6D737"/>
<rect width="60.9517" height="4.46099" rx="2.2305" transform="matrix(0.911331 0.411674 0 1 196.405 120.735)" fill="#A036FC"/>
<rect width="29.2165" height="4.46099" rx="2.2305" transform="matrix(0.911331 0.411674 0 1 258.841 148.937)" fill="#03BAE4"/>
<rect width="78.3305" height="4.46099" rx="2.2305" transform="matrix(0.911331 0.411674 0 1 292.351 164.075)" fill="#A036FC"/>
<rect width="45.5878" height="4.46099" rx="2.2305" transform="matrix(0.911331 0.411674 0 1 26.3213 55.0549)" fill="#A036FC"/>
<rect width="56.4181" height="4.46099" rx="2.2305" transform="matrix(0.911331 0.411674 0 1 74.7539 76.9329)" fill="#E6F4F3"/>
<rect width="79.3379" height="4.46099" rx="2.2305" transform="matrix(0.911331 0.411674 0 1 133.053 103.269)" fill="#03BAE4"/>
<rect width="27.7053" height="4.46099" rx="2.2305" transform="matrix(0.911331 0.411674 0 1 212.244 139.041)" fill="#E6F4F3"/>
<rect width="58.433" height="4.46099" rx="2.2305" transform="matrix(0.911331 0.411674 0 1 244.377 153.557)" fill="#1ABE5E"/>
<rect width="64.9815" height="4.46099" rx="2.2305" transform="matrix(0.911331 0.411674 0 1 304.518 180.723)" fill="#E6F4F3"/>
<rect width="88.657" height="4.46099" rx="2.2305" transform="matrix(0.911331 0.411674 0 1 26.3213 66.2075)" fill="#F6D737"/>
<rect width="29.2165" height="4.46099" rx="2.2305" transform="matrix(0.911331 0.411674 0 1 114.004 105.816)" fill="#A036FC"/>
<rect width="43.8248" height="4.46099" rx="2.2305" transform="matrix(0.911331 0.411674 0 1 147.514 120.954)" fill="#F6D737"/>
<rect width="73.545" height="4.46099" rx="2.2305" transform="matrix(0.911331 0.411674 0 1 194.341 142.106)" fill="#F6D737"/>
<rect width="29.2165" height="4.46099" rx="2.2305" transform="matrix(0.911331 0.411674 0 1 268.25 175.493)" fill="#A036FC"/>
<rect width="68.0039" height="4.46099" rx="2.2305" transform="matrix(0.911331 0.411674 0 1 301.762 190.632)" fill="#F6D737"/>
<rect width="78.3305" height="4.46099" rx="2.2305" transform="matrix(0.911331 0.411674 0 1 26.3213 77.3596)" fill="#1ABE5E"/>
<rect width="64.4778" height="4.46099" rx="2.2305" transform="matrix(0.911331 0.411674 0 1 104.591 112.717)" fill="#E6F4F3"/>
<rect width="29.2165" height="4.46099" rx="2.2305" transform="matrix(0.911331 0.411674 0 1 170.238 142.372)" fill="#03BAE4"/>
<rect width="70.2707" height="4.46099" rx="2.2305" transform="matrix(0.911331 0.411674 0 1 203.75 157.51)" fill="#1ABE5E"/>
<rect width="60.9517" height="4.46099" rx="2.2305" transform="matrix(0.911331 0.411674 0 1 274.678 189.549)" fill="#1ABE5E"/>
<rect width="29.2165" height="4.46099" rx="2.2305" transform="matrix(0.911331 0.411674 0 1 337.11 217.752)" fill="#E6F4F3"/>
<rect width="98.7316" height="4.46099" rx="2.2305" transform="matrix(0.911331 0.411674 0 1 26.3213 88.5125)" fill="#03BAE4"/>
<rect width="44.8322" height="4.46099" rx="2.2305" transform="matrix(0.911331 0.411674 0 1 123.184 132.268)" fill="#1ABE5E"/>
<rect width="20.653" height="4.46099" rx="2.2305" transform="matrix(0.911331 0.411674 0 1 170.928 153.835)" fill="#E6F4F3"/>
<rect width="68.0039" height="4.46099" rx="2.2305" transform="matrix(0.911331 0.411674 0 1 196.636 165.448)" fill="#A036FC"/>
<rect width="41.8098" height="4.46099" rx="2.2305" transform="matrix(0.911331 0.411674 0 1 265.495 196.554)" fill="#03BAE4"/>
<rect width="58.433" height="4.46099" rx="2.2305" transform="matrix(0.911331 0.411674 0 1 310.485 216.877)" fill="#A036FC"/>
<rect width="45.8397" height="4.46099" rx="2.2305" transform="matrix(0.911331 0.411674 0 1 26.3213 99.6646)" fill="#E6F4F3"/>
<rect width="57.6774" height="4.46099" rx="2.2305" transform="matrix(0.911331 0.411674 0 1 74.9839 121.646)" fill="#F6D737"/>
<rect width="22.1642" height="4.46099" rx="2.2305" transform="matrix(0.911331 0.411674 0 1 134.433 148.501)" fill="#1ABE5E"/>
<rect width="60.9517" height="4.46099" rx="2.2305" transform="matrix(0.911331 0.411674 0 1 161.519 160.737)" fill="#A036FC"/>
<rect width="29.2165" height="4.46099" rx="2.2305" transform="matrix(0.911331 0.411674 0 1 223.95 188.939)" fill="#03BAE4"/>
<rect width="78.3305" height="4.46099" rx="2.2305" transform="matrix(0.911331 0.411674 0 1 257.461 204.078)" fill="#A036FC"/>
<rect width="30.7277" height="4.46099" rx="2.2305" transform="matrix(0.911331 0.411674 0 1 335.733 239.435)" fill="#03BAE4"/>
<rect width="64.4778" height="4.46099" rx="2.2305" transform="matrix(0.911331 0.411674 0 1 26.3213 110.817)" fill="#1ABE5E"/>
<rect width="29.2165" height="4.46099" rx="2.2305" transform="matrix(0.911331 0.411674 0 1 91.9673 140.472)" fill="#E6F4F3"/>
<rect width="70.2707" height="4.46099" rx="2.2305" transform="matrix(0.911331 0.411674 0 1 125.481 155.61)" fill="#03BAE4"/>
<rect width="60.9517" height="4.46099" rx="2.2305" transform="matrix(0.911331 0.411674 0 1 196.405 187.649)" fill="#A036FC"/>
<rect width="29.2165" height="4.46099" rx="2.2305" transform="matrix(0.911331 0.411674 0 1 258.841 215.852)" fill="#03BAE4"/>
<rect width="78.3305" height="4.46099" rx="2.2305" transform="matrix(0.911331 0.411674 0 1 292.351 230.99)" fill="#1ABE5E"/>
<rect width="45.5878" height="4.46099" rx="2.2305" transform="matrix(0.911331 0.411674 0 1 26.3213 121.97)" fill="#03BAE4"/>
<rect width="56.4181" height="4.46099" rx="2.2305" transform="matrix(0.911331 0.411674 0 1 74.7539 143.848)" fill="#A036FC"/>
<rect width="79.3379" height="4.46099" rx="2.2305" transform="matrix(0.911331 0.411674 0 1 133.053 170.184)" fill="#F6D737"/>
<rect width="27.7053" height="4.46099" rx="2.2305" transform="matrix(0.911331 0.411674 0 1 212.244 205.956)" fill="#03BAE4"/>
<rect width="58.433" height="4.46099" rx="2.2305" transform="matrix(0.911331 0.411674 0 1 244.377 220.473)" fill="#F6D737"/>
<rect width="64.9815" height="4.46099" rx="2.2305" transform="matrix(0.911331 0.411674 0 1 304.518 247.638)" fill="#03BAE4"/>
<rect width="88.657" height="4.46099" rx="2.2305" transform="matrix(0.911331 0.411674 0 1 26.3213 133.122)" fill="#1ABE5E"/>
<rect width="29.2165" height="4.46099" rx="2.2305" transform="matrix(0.911331 0.411674 0 1 114.004 172.731)" fill="#03BAE4"/>
<rect width="43.8248" height="4.46099" rx="2.2305" transform="matrix(0.911331 0.411674 0 1 147.514 187.869)" fill="#E6F4F3"/>
<rect width="73.545" height="4.46099" rx="2.2305" transform="matrix(0.911331 0.411674 0 1 194.341 209.021)" fill="#A036FC"/>
<rect width="29.2165" height="4.46099" rx="2.2305" transform="matrix(0.911331 0.411674 0 1 268.25 242.408)" fill="#E6F4F3"/>
<rect width="68.0039" height="4.46099" rx="2.2305" transform="matrix(0.911331 0.411674 0 1 301.762 257.546)" fill="#1ABE5E"/>
<rect width="78.3305" height="4.46099" rx="2.2305" transform="matrix(0.911331 0.411674 0 1 26.3213 144.275)" fill="#03BAE4"/>
<rect width="64.4778" height="4.46099" rx="2.2305" transform="matrix(0.911331 0.411674 0 1 104.591 179.632)" fill="#A036FC"/>
<rect width="29.2165" height="4.46099" rx="2.2305" transform="matrix(0.911331 0.411674 0 1 170.238 209.286)" fill="#A036FC"/>
<rect width="70.2707" height="4.46099" rx="2.2305" transform="matrix(0.911331 0.411674 0 1 203.75 224.425)" fill="#E6F4F3"/>
<rect width="60.9517" height="4.46099" rx="2.2305" transform="matrix(0.911331 0.411674 0 1 274.678 256.464)" fill="#1ABE5E"/>
<rect width="29.2165" height="4.46099" rx="2.2305" transform="matrix(0.911331 0.411674 0 1 337.11 284.667)" fill="#A036FC"/>
<rect width="98.7316" height="4.46099" rx="2.2305" transform="matrix(0.911331 0.411674 0 1 26.3213 155.427)" fill="#A036FC"/>
<rect width="44.8322" height="4.46099" rx="2.2305" transform="matrix(0.911331 0.411674 0 1 123.184 199.183)" fill="#1ABE5E"/>
<rect width="20.653" height="4.46099" rx="2.2305" transform="matrix(0.911331 0.411674 0 1 170.928 220.75)" fill="#F6D737"/>
<rect width="68.0039" height="4.46099" rx="2.2305" transform="matrix(0.911331 0.411674 0 1 196.636 232.363)" fill="#F6D737"/>
<rect width="41.8098" height="4.46099" rx="2.2305" transform="matrix(0.911331 0.411674 0 1 265.495 263.469)" fill="#E6F4F3"/>
<rect width="58.433" height="4.46099" rx="2.2305" transform="matrix(0.911331 0.411674 0 1 310.485 283.792)" fill="#F6D737"/>
<rect width="88.657" height="4.46099" rx="2.2305" transform="matrix(0.911331 0.411674 0 1 26.3213 166.58)" fill="#F6D737"/>
<rect width="29.2165" height="4.46099" rx="2.2305" transform="matrix(0.911331 0.411674 0 1 114.004 206.188)" fill="#03BAE4"/>
<rect width="43.8248" height="4.46099" rx="2.2305" transform="matrix(0.911331 0.411674 0 1 147.514 221.326)" fill="#03BAE4"/>
<rect width="73.545" height="4.46099" rx="2.2305" transform="matrix(0.911331 0.411674 0 1 194.341 242.479)" fill="#A036FC"/>
<rect width="29.2165" height="4.46099" rx="2.2305" transform="matrix(0.911331 0.411674 0 1 268.25 275.866)" fill="#03BAE4"/>
<rect width="68.0039" height="4.46099" rx="2.2305" transform="matrix(0.911331 0.411674 0 1 301.762 291.004)" fill="#F6D737"/>
<rect width="64.4778" height="4.46099" rx="2.2305" transform="matrix(0.911331 0.411674 0 1 26.3213 177.732)" fill="#03BAE4"/>
<rect width="29.2165" height="4.46099" rx="2.2305" transform="matrix(0.911331 0.411674 0 1 91.9673 207.386)" fill="#A036FC"/>
<rect width="70.2707" height="4.46099" rx="2.2305" transform="matrix(0.911331 0.411674 0 1 125.481 222.525)" fill="#F6D737"/>
<rect width="60.9517" height="4.46099" rx="2.2305" transform="matrix(0.911331 0.411674 0 1 196.405 254.564)" fill="#03BAE4"/>
<rect width="29.2165" height="4.46099" rx="2.2305" transform="matrix(0.911331 0.411674 0 1 258.841 282.767)" fill="#1ABE5E"/>
<rect width="78.3305" height="4.46099" rx="2.2305" transform="matrix(0.911331 0.411674 0 1 292.351 297.905)" fill="#1ABE5E"/>
<rect width="98.7316" height="4.46099" rx="2.2305" transform="matrix(0.911331 0.411674 0 1 26.3213 188.885)" fill="#F6D737"/>
<rect width="44.8322" height="4.46099" rx="2.2305" transform="matrix(0.911331 0.411674 0 1 123.184 232.641)" fill="#03BAE4"/>
<rect width="20.653" height="4.46099" rx="2.2305" transform="matrix(0.911331 0.411674 0 1 170.928 254.208)" fill="#A036FC"/>
<rect width="68.0039" height="4.46099" rx="2.2305" transform="matrix(0.911331 0.411674 0 1 196.636 265.82)" fill="#F6D737"/>
<rect width="41.8098" height="4.46099" rx="2.2305" transform="matrix(0.911331 0.411674 0 1 265.495 296.927)" fill="#A036FC"/>
<rect width="58.433" height="4.46099" rx="2.2305" transform="matrix(0.911331 0.411674 0 1 310.485 317.249)" fill="#E6F4F3"/>
<rect width="78.3305" height="4.46099" rx="2.2305" transform="matrix(0.911331 0.411674 0 1 26.3213 200.037)" fill="#03BAE4"/>
<rect width="64.4778" height="4.46099" rx="2.2305" transform="matrix(0.911331 0.411674 0 1 104.591 235.395)" fill="#A036FC"/>
<rect width="29.2165" height="4.46099" rx="2.2305" transform="matrix(0.911331 0.411674 0 1 170.238 265.049)" fill="#E6F4F3"/>
<rect width="70.2707" height="4.46099" rx="2.2305" transform="matrix(0.911331 0.411674 0 1 203.75 280.187)" fill="#E6F4F3"/>
<rect width="60.9517" height="4.46099" rx="2.2305" transform="matrix(0.911331 0.411674 0 1 274.678 312.226)" fill="#F6D737"/>
<rect width="29.2165" height="4.46099" rx="2.2305" transform="matrix(0.911331 0.411674 0 1 337.11 340.429)" fill="#A036FC"/>
<rect width="64.4778" height="4.46099" rx="2.2305" transform="matrix(0.911331 0.411674 0 1 26.3213 211.189)" fill="#F6D737"/>
<rect width="29.2165" height="4.46099" rx="2.2305" transform="matrix(0.911331 0.411674 0 1 91.9673 240.844)" fill="#F6D737"/>
<rect width="70.2707" height="4.46099" rx="2.2305" transform="matrix(0.911331 0.411674 0 1 125.481 255.982)" fill="#F6D737"/>
<rect width="60.9517" height="4.46099" rx="2.2305" transform="matrix(0.911331 0.411674 0 1 196.405 288.021)" fill="#F6D737"/>
<rect width="29.2165" height="4.46099" rx="2.2305" transform="matrix(0.911331 0.411674 0 1 258.841 316.224)" fill="#A036FC"/>
<rect width="78.3305" height="4.46099" rx="2.2305" transform="matrix(0.911331 0.411674 0 1 292.351 331.363)" fill="#F6D737"/>
<rect width="88.657" height="4.46099" rx="2.2305" transform="matrix(0.911331 0.411674 0 1 26.3213 222.342)" fill="#A036FC"/>
<rect width="29.2165" height="4.46099" rx="2.2305" transform="matrix(0.911331 0.411674 0 1 114.004 261.95)" fill="#03BAE4"/>
<rect width="43.8248" height="4.46099" rx="2.2305" transform="matrix(0.911331 0.411674 0 1 147.514 277.089)" fill="#A036FC"/>
<rect width="73.545" height="4.46099" rx="2.2305" transform="matrix(0.911331 0.411674 0 1 194.341 298.241)" fill="#03BAE4"/>
<rect width="29.2165" height="4.46099" rx="2.2305" transform="matrix(0.911331 0.411674 0 1 268.25 331.628)" fill="#F6D737"/>
<rect width="68.0039" height="4.46099" rx="2.2305" transform="matrix(0.911331 0.411674 0 1 301.762 346.766)" fill="#F6D737"/>
</g>
<defs>
<filter id="filter0_f_99_953" x="25.3213" y="43.6384" width="339.416" height="335.848" filterUnits="userSpaceOnUse" color-interpolation-filters="sRGB">
<feFlood flood-opacity="0" result="BackgroundImageFix"/>
<feBlend mode="normal" in="SourceGraphic" in2="BackgroundImageFix" result="shape"/>
<feGaussianBlur stdDeviation="0.5" result="effect1_foregroundBlur_99_953"/>
</filter>
</defs>
</svg>
